<svg width="100%" height="100%" viewBox="0 0 1440 320" xmlns="http://www.w3.org/2000/svg">
    <defs>
        <linearGradient id="gradient" x1="0%" y1="0%" x2="100%" y2="100%">
            <stop offset="0%" style="stop-color:#aaa; stop-opacity:1" />
            <stop offset="100%" style="stop-color:#aaa; stop-opacity:1" />
        </linearGradient>
    </defs>
    <path fill="url(#gradient)" d="M0,128L30,128C60,128,120,128,180,144C240,160,300,192,360,192C420,192,480,160,540,144C600,128,660,128,720,144C780,160,840,192,900,202.7C960,213,1020,203,1080,186.7C1140,171,1200,149,1260,144C1320,139,1380,149,1410,154.7L1440,160L1440,320L1410,320C1380,320,1320,320,1260,320C1200,320,1140,320,1080,320C1020,320,960,320,900,320C840,320,780,320,720,320C660,320,600,320,540,320C480,320,420,320,360,320C300,320,240,320,180,320C120,320,60,320,30,320H0V128Z"></path>
</svg>